<svg width="21" height="20" viewBox="0 0 21 20" fill="none" xmlns="http://www.w3.org/2000/svg">
<path d="M0 7.44724L6.34975 12.1116L10.3477 10.7593L0 7.44724Z" fill="#BE7600"/>
<path d="M7.87839 7.44724H0L10.3477 10.7593L7.87839 7.44724Z" fill="#FDA800"/>
<path d="M10.3477 0L7.87839 7.44724L10.3477 10.7593V0Z" fill="#BE7600"/>
<path d="M12.6995 7.44724L10.3477 0V10.7593L12.6995 7.44724Z" fill="#FDA800"/>
<path d="M20.5583 7.44724H12.6995L10.3477 10.7593L20.5583 7.44724Z" fill="#BE7600"/>
<path d="M16.5995 19.5L14.2281 12.1116L10.3477 10.7593L16.5995 19.5Z" fill="#BE7600"/>
<path d="M10.3477 14.9337V10.7593L3.9 19.5L10.3477 14.9337Z" fill="#BE7600"/>
<path d="M10.3477 10.7593L6.34975 12.1116L3.9 19.5L10.3477 10.7593Z" fill="#FDA800"/>
<path d="M10.3477 14.9337L16.5995 19.5L10.3477 10.7593V14.9337Z" fill="#FDA800"/>
<path d="M14.2281 12.1116L20.5583 7.44724L10.3477 10.7593L14.2281 12.1116Z" fill="#FDA800"/>
</svg>
